<?xml version="1.0" encoding="UTF-8"?>
<svg xmlns="http://www.w3.org/2000/svg" width="216" height="44" viewBox="0 0 216 44" fill="none">
  <g clip-path="url(#clip0_2055_518)">
    <path d="M80.0201 24.805V13.265H83.9901V30.535H80.0201L70.8401 19.045V30.535H66.8701V13.265H70.8401L80.0201 24.805Z" fill="#545F62"></path>
    <path d="M106.73 30.525H91.76V13.265H106.73V16.815H95.73V19.945H105.99V23.475H95.73V26.975H106.73V30.525Z" fill="#545F62"></path>
    <path d="M127.17 13.265H131.14V22.445C131.14 28.095 128.23 30.925 122.48 30.925C116.73 30.925 113.82 28.085 113.82 22.445V13.265H117.79V22.445C117.79 25.845 119.22 27.355 122.48 27.355C125.74 27.355 127.17 25.855 127.17 22.445V13.265Z" fill="#545F62"></path>
    <path d="M154.94 25.565C154.94 29.095 153.36 30.525 149.41 30.525H138.66V13.265H149.22C153.26 13.265 154.6 14.425 154.6 17.875C154.6 19.775 153.56 21.175 151.79 21.505C153.84 21.825 154.95 23.335 154.95 25.575L154.94 25.565ZM142.63 16.585V20.085H148.8C150.11 20.085 150.65 19.595 150.65 18.335C150.65 17.075 150.11 16.585 148.8 16.585H142.63ZM142.63 27.195H148.89C150.37 27.195 150.96 26.625 150.96 25.275C150.96 23.925 150.37 23.375 148.89 23.375H142.63V27.195Z" fill="#545F62"></path>
    <path d="M166.26 30.525H162.29V13.265H166.26V30.535V30.525Z" fill="#545F62"></path>
    <path d="M192.28 30.525H187.17L181.87 24.305H178.71V30.525H174.74V13.265H185.27C189.07 13.265 190.77 14.915 190.77 18.565C190.77 21.625 189.46 23.255 186.5 23.865L192.27 30.525H192.28ZM178.71 16.785V20.785H184.65C186.11 20.785 186.8 20.165 186.8 18.785C186.8 17.405 186.11 16.785 184.65 16.785H178.71Z" fill="#545F62"></path>
    <path d="M206.51 13.265C212.5 13.265 215.41 16.105 215.41 21.895C215.41 27.685 212.5 30.525 206.51 30.525H198.07V13.265H206.51ZM202.05 26.955H206.51C210.01 26.955 211.44 25.475 211.44 21.895C211.44 18.315 210.01 16.835 206.51 16.835H202.05V26.945V26.955Z" fill="#545F62"></path>
    <path d="M21.3899 13.2249C26.2299 13.2249 30.1699 17.1649 30.1699 22.0049C30.1699 23.9649 29.5199 25.7649 28.4299 27.2349H57.9899C57.9899 18.5749 50.9699 11.5549 42.3099 11.5549H21.3999V13.2349L21.3899 13.2249Z" fill="#F3755F"></path>
    <path d="M21.3899 25.775C23.4775 25.775 25.1699 24.0826 25.1699 21.995C25.1699 19.9073 23.4775 18.215 21.3899 18.215C19.3022 18.215 17.6099 19.9073 17.6099 21.995C17.6099 24.0826 19.3022 25.775 21.3899 25.775Z" fill="#003A51"></path>
    <path d="M39.1299 27.225C38.3299 29.935 36.9099 32.385 35.0499 34.425C34.7299 34.775 34.1899 34.795 33.8599 34.455L31.0699 31.665C29.8799 30.475 29.6399 28.645 30.4699 27.185C31.5099 25.375 32.0199 23.215 31.7999 20.925C31.3099 15.965 27.2499 11.985 22.2799 11.575C18.2799 11.245 14.7099 13.175 12.6899 16.215H12.6799C9.58991 21.025 8.44991 25.705 8.42991 29.955C8.42991 31.045 9.73991 31.595 10.5099 30.825L15.7699 25.565C14.8999 24.205 14.4999 22.515 14.8399 20.725C15.3499 18.015 17.5499 15.855 20.2699 15.405C24.8299 14.655 28.7399 18.555 27.9899 23.125C27.5399 25.845 25.3799 28.045 22.6699 28.555C20.8799 28.885 19.1899 28.495 17.8299 27.625L10.0499 35.405C9.67991 35.775 9.07991 35.775 8.69991 35.405C4.64991 31.565 2.31991 25.915 3.03991 19.765C4.03991 11.225 10.9999 4.42502 19.5699 3.59502C26.6299 2.91502 32.9799 6.23502 36.6299 11.545H40.0499C36.3199 4.91502 29.1699 0.465018 21.0099 0.605018C9.33991 0.815018 -0.120092 10.565 -9.15374e-05 22.225C0.119908 33.885 9.66991 43.385 21.3899 43.385C31.3799 43.385 39.7999 36.495 42.1299 27.215H39.1199L39.1299 27.225Z" fill="#003A51"></path>
  </g>
  <defs>
    <clipPath id="clip0_2055_518">
      <rect width="215.41" height="42.79" fill="white" transform="translate(0 0.60498)"></rect>
    </clipPath>
  </defs>
</svg>
